<svg id="ba98754d-5a0f-4847-ba33-b26c5fa26998" data-name="Layer 1" xmlns="http://www.w3.org/2000/svg" width="865.76" height="682.89" viewBox="0 0 865.76 682.89"><circle cx="259.24" cy="99.24" r="62.02" opacity="0.1" style="isolation:isolate"/><path d="M235.36,95.6a25,25,0,0,0,.34-4,25.37,25.37,0,0,0-25.31-25.38,23.52,23.52,0,0,0-4.11.36,29,29,0,0,0-52.79,7.06,18.81,18.81,0,0,0-24,21.92Z" fill="#f0f0f0"/><path d="M293.14,128.26A14,14,0,0,1,307,112a13.58,13.58,0,0,1,2.3.22,16.07,16.07,0,0,1,29.35,3.91,10.45,10.45,0,0,1,13.09,6.86,10.63,10.63,0,0,1,.47,3.12,11,11,0,0,1-.23,2.21Z" fill="#f0f0f0"/><path d="M87.11,167.58c-8-3-23.31-6.25-30.61,8.69,0,0,8.37-6.53,22.48-5a7.51,7.51,0,0,0-.49,6.52l8.7-4.81h.13c18.85-5.59,30.42,3.41,30.42,3.41C110.42,161.33,95.13,164.56,87.11,167.58Z" fill="#f0f0f0"/><path d="M495.33,581.31c-15.24-129.22-31.53-322.55-81.6-326.68-76-6.24-66.06,190.53-108.26,186.66s-45.14-301.72-125.39-300c-75.29,1.59-107,391.58-110.59,440Z" fill="#e0e0e0"/><path d="M807.64,579.46c-15.23-129.21-31.53-322.55-81.59-326.68-76-6.24-66.07,190.53-108.27,186.66s-45.14-301.72-125.39-300C417.1,141,385.44,531,381.81,579.46Z" fill="#e0e0e0"/><polygon points="709.96 496.74 773.68 578.87 771.64 564.13 714.62 490 710.13 489.48 709.96 496.74" fill="#ccc"/><polygon points="725.67 300.3 755.29 365.04 756.9 385.94 725.21 313.39 725.67 300.3" fill="#ccc"/><polygon points="702.3 580.14 737.67 163.61 773.68 578.88 781.89 579.51 743.36 116.42 731.99 117.05 693.46 579.51 702.3 580.14" fill="#2f2e41"/><rect x="689.67" y="481.61" width="94.74" height="8.21" rx="0.85" fill="#01B763FF"/><rect x="698.55" y="386.23" width="77.02" height="8.38" rx="0.85" fill="#01B763FF"/><rect x="707.36" y="291.46" width="61.17" height="8.81" rx="0.85" fill="#01B763FF"/><rect x="715.14" y="198.23" width="44.58" height="8.21" rx="0.85" fill="#01B763FF"/><rect x="728.1" y="77.88" width="4.15" height="23.85" transform="translate(17.77 273.4) rotate(-21.46)" fill="#2f2e41"/><rect x="743.39" y="76.85" width="4.15" height="23.85" transform="translate(91.39 -279.72) rotate(22.61)" fill="#2f2e41"/><rect x="755.83" y="87.21" width="4.15" height="23.85" transform="translate(609.34 -650.65) rotate(71.34)" fill="#2f2e41"/><rect x="754.45" y="103.11" width="4.15" height="23.85" transform="matrix(-0.34, 0.94, -0.94, -0.34, 1120.22, -558.23)" fill="#2f2e41"/><rect x="717.82" y="88.6" width="4.15" height="23.85" transform="translate(1057.55 -543.17) rotate(109.73)" fill="#2f2e41"/><rect x="718.16" y="103.46" width="4.15" height="23.85" transform="translate(520.17 -586.07) rotate(64.98)" fill="#2f2e41"/><rect x="727.04" y="116.07" width="4.15" height="23.85" transform="translate(120.66 -293.65) rotate(24.76)" fill="#2f2e41"/><rect x="743.88" y="115.23" width="4.15" height="23.85" transform="translate(-0.09 253.78) rotate(-19.31)" fill="#2f2e41"/><g opacity="0.2"><rect x="728.1" y="77.88" width="4.15" height="23.85" transform="translate(17.77 273.4) rotate(-21.46)"/><rect x="743.39" y="76.85" width="4.15" height="23.85" transform="translate(91.39 -279.72) rotate(22.61)"/><rect x="755.83" y="87.21" width="4.15" height="23.85" transform="translate(609.34 -650.65) rotate(71.34)"/><rect x="754.45" y="103.11" width="4.15" height="23.85" transform="matrix(-0.34, 0.94, -0.94, -0.34, 1120.22, -558.23)"/><rect x="717.82" y="88.6" width="4.15" height="23.85" transform="translate(1057.55 -543.17) rotate(109.73)"/><rect x="718.16" y="103.46" width="4.15" height="23.85" transform="translate(520.17 -586.07) rotate(64.98)"/><rect x="727.04" y="116.07" width="4.15" height="23.85" transform="translate(120.66 -293.65) rotate(24.76)"/><rect x="743.88" y="115.23" width="4.15" height="23.85" transform="translate(-0.09 253.78) rotate(-19.31)"/></g><circle cx="738.29" cy="108.12" r="12.44" fill="#ccc"/><circle cx="738.29" cy="108.12" r="5.7" opacity="0.2"/><polygon points="754.01 26.16 743.79 80.71 754.01 84.36 783.97 40.04 754.01 26.16" fill="#ccc"/><polygon points="690.27 37.36 721.35 83.34 731.19 78.74 721.33 26.17 690.27 37.36" fill="#ccc"/><polygon points="656.96 91.37 711.44 101.96 715.16 91.75 671.03 61.51 656.96 91.37" fill="#ccc"/><polygon points="668.42 154.11 714.75 123.57 710.27 113.67 657.59 122.93 668.42 154.11" fill="#ccc"/><polygon points="807.52 60.62 761.16 91.13 765.63 101.03 818.33 91.81 807.52 60.62" fill="#ccc"/><polygon points="820.21 122.99 765.43 114.06 762.03 124.37 807.04 153.26 820.21 122.99" fill="#ccc"/><polygon points="784.97 177.15 752.68 132.01 742.97 136.86 754.22 189.16 784.97 177.15" fill="#ccc"/><polygon points="720.98 189.73 731.96 135.33 721.78 131.53 691.22 175.44 720.98 189.73" fill="#ccc"/><rect x="735.61" y="592.33" width="73.69" height="0.56" fill="#ebebeb"/><rect x="525.91" y="598.39" width="19.34" height="0.56" fill="#ebebeb"/><rect x="690.69" y="571.69" width="42.7" height="0.56" fill="#ebebeb"/><rect x="136.57" y="582.25" width="70.41" height="0.41" fill="#ebebeb"/><rect x="221.5" y="582.25" width="10.32" height="0.41" fill="#ebebeb"/><rect x="265.37" y="589.13" width="152.72" height="0.41" fill="#ebebeb"/><path d="M516.19,539.51a79.13,79.13,0,0,0-18.72,25.39c-7.25-31-28.59-53.13-28.59-53.13a154,154,0,0,1,15.42,57.67c-4.45-13.22-13.64-17-13.64-17,6.86,13.15,4.34,30.71,4.34,30.71h31.6A93.78,93.78,0,0,1,516.19,539.51Z" fill="#f0f0f0"/><path d="M596.4,642a116.86,116.86,0,0,1,11.69-43.66,96.21,96.21,0,0,0-21.65,40.25,60,60,0,0,0-14.18-19.24,70.9,70.9,0,0,1,7.26,33h23.92s-1.9-13.35,3.29-23.25C606.73,629.15,599.72,632,596.4,642Z" fill="#f0f0f0"/><path d="M155.05,586a80.85,80.85,0,0,0-8.15-30.23,66.58,66.58,0,0,1,15,27.88,41.64,41.64,0,0,1,9.78-13.33,49.26,49.26,0,0,0-5,22.82H150.18s1.32-9.2-2.28-16.11A14.38,14.38,0,0,1,155.05,586Z" fill="#f0f0f0"/><path d="M283.64,128.27a32.28,32.28,0,0,0,.47-5.28,33.53,33.53,0,0,0-33.4-33.66,33.08,33.08,0,0,0-5.71.47,38.4,38.4,0,0,0-69.91,9.36A25,25,0,0,0,142.71,123a26,26,0,0,0,.58,5.28Z" fill="#f0f0f0"/><polygon points="478.8 108.29 478.8 283.99 384.97 283.99 384.97 108.48 478.8 108.29" fill="#2f2e41"/><path d="M478.8,102.46a46.92,46.92,0,0,0-46.92-46.92h0A46.92,46.92,0,0,0,385,102.46Z" fill="#ccc"/><rect x="380.65" y="102.29" width="102.46" height="6.57" rx="0.91" fill="#01B763FF"/><rect x="380.65" y="139.51" width="102.46" height="6.57" rx="0.91" fill="#01B763FF"/><rect x="380.65" y="177.17" width="102.46" height="6.57" rx="0.91" fill="#01B763FF"/><rect x="380.65" y="213.95" width="102.46" height="6.57" rx="0.91" fill="#01B763FF"/><rect x="380.65" y="250.73" width="102.46" height="6.57" rx="0.91" fill="#01B763FF"/><polygon points="584.77 107.85 584.77 283.55 490.93 283.55 490.93 108.05 584.77 107.85" fill="#2f2e41"/><path d="M584.77,102A46.92,46.92,0,0,0,537.85,55.1h0A46.92,46.92,0,0,0,490.93,102Z" fill="#ccc"/><rect x="486.62" y="101.85" width="102.46" height="6.57" rx="0.91" fill="#01B763FF"/><rect x="486.62" y="139.07" width="102.46" height="6.57" rx="0.91" fill="#01B763FF"/><rect x="486.62" y="176.73" width="102.46" height="6.57" rx="0.91" fill="#01B763FF"/><rect x="486.62" y="213.51" width="102.46" height="6.57" rx="0.91" fill="#01B763FF"/><rect x="486.62" y="250.29" width="102.46" height="6.57" rx="0.91" fill="#01B763FF"/><rect x="229.97" y="356.1" width="260.33" height="221.81" fill="#bfbfbf"/><polygon points="701.2 356.1 667.46 356.54 578.21 300.15 599.53 285.5 701.2 356.1" fill="#01B763FF"/><polygon points="701.2 356.1 667.46 356.54 578.21 300.15 599.53 285.5 701.2 356.1" fill="#fff" opacity="0.2"/><path d="M490.3,577.9V356.1h4.44l95-63.94,80.81,55.5V577Z" fill="#ccc"/><rect x="519.61" y="370.06" width="115.44" height="205.7" fill="#2f2e41"/><rect x="635.05" y="369.11" width="6.73" height="208.03" fill="#b2b2b2"/><rect x="389.34" y="370.29" width="60.67" height="22.5" fill="#01B763FF" opacity="0.25"/><rect x="389.34" y="370.29" width="6.52" height="22.18" fill="#b2b2b2"/><rect x="291.49" y="370.29" width="60.67" height="22.5" fill="#01B763FF" opacity="0.25"/><rect x="407.61" y="449.53" width="4.78" height="16.25" fill="#b2b2b2"/><path d="M465.5,466.11l.24-16.25A16.78,16.78,0,0,1,470.58,438a15.14,15.14,0,0,1,7.68-4,3.1,3.1,0,0,1,3.61,3.12h0a3.12,3.12,0,0,1-2,2.94c-2.85,1.1-7.62,3.63-6.76,8.14l-.91,17.29Z" fill="#2f2e41"/><rect x="462.47" y="461.56" width="12.74" height="50.64" fill="#2f2e41"/><rect x="462.47" y="461.56" width="12.74" height="50.64" fill="#fff" opacity="0.2"/><rect x="119.51" y="602.8" width="9.08" height="24.77" fill="#2f2e41"/><rect x="170.31" y="602.8" width="8.56" height="25.3" fill="#2f2e41"/><rect x="219.04" y="602.8" width="8.56" height="25.3" fill="#2f2e41"/><g opacity="0.2"><rect x="119.51" y="602.8" width="9.08" height="24.77" fill="#fff"/><rect x="170.31" y="602.8" width="8.56" height="25.3" fill="#fff"/><rect x="219.04" y="602.8" width="8.56" height="25.3" fill="#fff"/></g><path d="M143.87,595.37l127.3-34.61a3.8,3.8,0,0,1,4.79,3.66v51.8a3.93,3.93,0,0,1-3.92,3.92h0a3.92,3.92,0,0,1-3.92-3.92V570.6l-95.77,25.18Z" fill="#2f2e41"/><path d="M556.32,554.94s3.34,32.36-.38,53.94H408.62L295.85,541.22S326,505.09,374.4,521.45c0,0,32,11.17,43.15,44.28l58.78-1.12s-14.88,10.79-15.62,41.29H467s.37-34.59,29.76-48.73c0,0,21.95-12.65,50.23-.37l2.36-4.44a1.24,1.24,0,0,1,1.73-.49Z" fill="#01B763FF"/><path d="M556.32,554.94s3.34,32.36-.38,53.94H408.62L295.85,541.22S326,505.09,374.4,521.45c0,0,32,11.17,43.15,44.28l58.78-1.12s-14.88,10.79-15.62,41.29H467s.37-34.59,29.76-48.73c0,0,21.95-12.65,50.23-.37l2.36-4.44a1.24,1.24,0,0,1,1.73-.49Z" opacity="0.2"/><path d="M417.55,565.73c-12-33.73-43.15-44.28-43.15-44.28-49.65-15.92-78.55,19.77-78.55,19.77-4.33,3.83-3.33-1.18-3.33-1.18s23.62-37.69,69.75-33.23c0,0,55.24,6.21,60.3,58.83Z" fill="#01B763FF"/><path d="M476,564.6s-14.45,8.88-15.25,41.3H467s.1-32.84,29.26-48.31c0,0,20.2-13,50.73-.79l2.36-4.44a1.27,1.27,0,0,1,1.73-.49l5.21,3.07s2.39-16.74-10.26-23.31-25.67-20.58-94.13-23.56c0,0,.42,33.38-2.2,57.05Z" fill="#01B763FF"/><path d="M533.94,545.06s-40.36-12.81-81.28-12.43a277,277,0,0,1-2.93,32.49L476,564.6S494.5,538.74,533.94,545.06Z" fill="#fff" opacity="0.2"/><path d="M337.21,508.58l9.65-57.41,93,.38s20.16,50.08,9.86,113.57l-27.19.52s-1.9-39-44.49-54.81C378.05,510.83,358.66,503.15,337.21,508.58Z" fill="#2f2e41"/><path d="M386,461.36l-2,39.11a4.19,4.19,0,0,0,2.59,4.09c5,2.06,15.61,6.64,21.44,10.81,0,0,7.82,4.84,13.77.74L439.66,509s-5.21-48-21.21-50.22H388.63A2.67,2.67,0,0,0,386,461.36Z" fill="#01B763FF" opacity="0.14"/><path d="M346.86,451.17s-5.92,1.3-4.49-7c0,0-1.71-4,12.25-4,0,0,69.23-2.56,85.18,4.85,0,0,5.55,3.86.07,6.48Z" fill="#01B763FF"/><path d="M438.59,603.62H408V569.15h34.35a4.92,4.92,0,0,1,4.87,5.67l-3.74,24.61A4.93,4.93,0,0,1,438.59,603.62Z" fill="#2f2e41"/><path d="M438.59,603.62H408V569.15h34.35a4.92,4.92,0,0,1,4.87,5.67l-3.74,24.61A4.93,4.93,0,0,1,438.59,603.62Z" fill="#fff" opacity="0.2"/><path d="M558.4,577.3s.32-6.91,5.34-6.28h18.83a4.4,4.4,0,0,1,4.4,4.4V599.9a4.4,4.4,0,0,1-4.4,4.4H567.81A44.19,44.19,0,0,0,558.4,577.3Z" fill="#01B763FF"/><path d="M39.65,595.5H298a0,0,0,0,1,0,0v12.78a0,0,0,0,1,0,0H39.65a1.84,1.84,0,0,1-1.84-1.84v-9.1a1.84,1.84,0,0,1,1.84-1.84Z" fill="#2f2e41"/><path d="M39.65,595.5H298a0,0,0,0,1,0,0v12.78a0,0,0,0,1,0,0H39.65a1.84,1.84,0,0,1-1.84-1.84v-9.1a1.84,1.84,0,0,1,1.84-1.84Z" opacity="0.2"/><path d="M264.88,581.35H298a0,0,0,0,1,0,0V595.5a0,0,0,0,1,0,0H264.88a2,2,0,0,1-2-2V583.38A2,2,0,0,1,264.88,581.35Z" fill="#2f2e41"/><path d="M264.88,581.35H298a0,0,0,0,1,0,0V595.5a0,0,0,0,1,0,0H264.88a2,2,0,0,1-2-2V583.38A2,2,0,0,1,264.88,581.35Z" fill="#fff" opacity="0.2"/><path d="M55.24,577.24h7.15a1.45,1.45,0,0,1,1.45,1.45v33.7a0,0,0,0,1,0,0h-10a0,0,0,0,1,0,0v-33.7a1.45,1.45,0,0,1,1.45-1.45Z" fill="#2f2e41"/><path d="M107.13,628l26.42-7s6.19-3.31,4.54,8.66a26,26,0,0,0,11.55,20.64s4.67,8.7-13.93,1.63C135.71,651.9,93.8,634.2,107.13,628Z" fill="#2f2e41"/><path d="M153.94,628.47l27.16-7.82s7.06-3.72,5.58,6.33c0,0,3,18.56,13,24.71a2.26,2.26,0,0,1,.42,3.49c-1.55,1.53-4.68,2.67-10.83-.3C189.28,654.88,146.13,636.65,153.94,628.47Z" fill="#2f2e41"/><path d="M203.42,628.47l27.16-7.82s7.06-3.72,5.58,6.33c0,0,3,18.56,13,24.71a2.26,2.26,0,0,1,.42,3.49c-1.55,1.53-4.68,2.67-10.83-.3C238.76,654.88,195.61,636.65,203.42,628.47Z" fill="#2f2e41"/><circle cx="350.18" cy="587.73" r="63.06" fill="#2f2e41"/><circle cx="350.18" cy="588.47" r="37.76" opacity="0.2"/><circle cx="350.18" cy="588.47" r="13.21" fill="#ebebeb"/><circle cx="349.81" cy="563.55" r="3.16" fill="#ebebeb"/><circle cx="375.48" cy="588.66" r="3.16" fill="#ebebeb"/><circle cx="350" cy="613.77" r="3.16" fill="#ebebeb"/><circle cx="325.44" cy="588.47" r="3.16" fill="#ebebeb"/><circle cx="521.23" cy="605.01" r="46.58" fill="#2f2e41"/><circle cx="521.91" cy="605.35" r="25.92" opacity="0.2"/><circle cx="521.91" cy="605.35" r="11.35" fill="#ebebeb"/><circle cx="59.04" cy="629.96" r="21.22" fill="#2f2e41"/><circle cx="59.5" cy="630.41" r="12.55" opacity="0.2"/><circle cx="59.72" cy="630.64" r="4.56" fill="#ebebeb"/><path d="M424,546.25c1,2.89,1.07,5.23,1.59,6.88a8.46,8.46,0,0,0,6.7,5.77,14.66,14.66,0,0,0,5,.09,7.68,7.68,0,0,0,6.23-6.45c6-38.22-5.34-78.84-5.34-78.84-4.47-22.69-10.05-21.95-10.05-21.95L382,451.38l-3.72,53.94A60.36,60.36,0,0,1,424,546.25Z" fill="#01B763FF" opacity="0.25"/><path d="M353.89,500.81l5.38-37.19a8.31,8.31,0,0,1,8.5-6.48l7.7-.4-2.6,45.89S361.44,502.59,353.89,500.81Z" fill="#01B763FF" opacity="0.25"/><path d="M375.48,451.48l-2.54,51.12s-28.52.24-27.53-7.94l6.2-35.22s0-5.6,7.72-8.08Z" fill="#01B763FF" opacity="0.25"/><path d="M215.3,349.09l108.5-73.36,275.28.45L490.75,349.44l-275.21.44A.43.43,0,0,1,215.3,349.09Z" fill="#01B763FF"/><polygon points="218.13 355.65 215.54 349.88 490.75 349.44 494.74 356.1 218.13 355.65" fill="#01B763FF"/><polygon points="218.13 355.65 215.54 349.88 490.75 349.44 494.74 356.1 218.13 355.65" opacity="0.2"/><polygon points="494.74 356.1 599.53 285.5 701.2 356.1 706.53 348.99 599.08 276.18 490.75 349.44 494.74 356.1" fill="#01B763FF"/><polygon points="494.74 356.1 599.53 285.5 701.2 356.1 706.53 348.99 599.08 276.18 490.75 349.44 494.74 356.1" opacity="0.2"/><g id="b74e9ec1-40b1-45db-92a0-e4e1d529fcac" data-name="freepik--chicken-2--inject-2"><path d="M668.93,610.2c-.12.37,0,15.9,0,15.9s-12.14,6.38-10.3,6,9-3.14,9-3.14-4.29,3.92-2.71,3.15a37.72,37.72,0,0,0,4.8-3.43s11.56.38,9.18-.5a53.45,53.45,0,0,0-7.51-1.63l.86-14.77Z" fill="#01B763FF"/><path d="M687.84,610.2c-.13.37,0,15.9,0,15.9s-12.15,6.38-10.3,6,9-3.14,9-3.14-4.29,3.92-2.72,3.15a37.72,37.72,0,0,0,4.8-3.43s11.56.38,9.18-.5a53.45,53.45,0,0,0-7.51-1.63l.86-14.77Z" fill="#01B763FF"/><g opacity="0.5"><path d="M668.93,610.2c-.12.37,0,15.9,0,15.9s-12.14,6.38-10.3,6,9-3.14,9-3.14-4.29,3.92-2.71,3.15a37.72,37.72,0,0,0,4.8-3.43s11.56.38,9.18-.5a53.45,53.45,0,0,0-7.51-1.63l.86-14.77Z" fill="#fff"/><path d="M687.84,610.2c-.13.37,0,15.9,0,15.9s-12.15,6.38-10.3,6,9-3.14,9-3.14-4.29,3.92-2.72,3.15a37.72,37.72,0,0,0,4.8-3.43s11.56.38,9.18-.5a53.45,53.45,0,0,0-7.51-1.63l.86-14.77Z" fill="#fff"/></g><path d="M616.22,599a5.83,5.83,0,0,0-2.44.4,2.42,2.42,0,0,1-2.37.18c-1.39-.86-.43-3.44-1.64-4.52-.26-.23-.6-.38-.86-.61a.8.8,0,0,1-.26-.93c.22-.36.76-.35,1.06-.64.46-.46,0-1.23-.42-1.71s-.85-1.31-.33-1.72c.33-.28.86-.15,1.28-.28.74-.21,1-1.14,1.13-1.9s.44-1.72,1.2-1.85c1.08-.23,2.17,1.28,3.08.68.67-.43.4-1.47.72-2.2a1.76,1.76,0,0,1,2.76-.29,3.09,3.09,0,0,1,.49,3.08,15,15,0,0,1-1.54,2.87,15.09,15.09,0,0,0-1.87,9.44" fill="#01B763FF"/><path d="M618.38,587.73c.14-.54,13.35-10.76,15.39-13.73s7.72-8,11.43-10.49,60.87-25,60.87-25,20.83-9.26,22.19-5.58-1.36,10.62-2.45,10.75,2.45,5.86-2.18,9.67c0,0,2.18.41-1.76,5.31s-12.53,11.3-12.53,11.3,1.9,15.53-3,22.74S692.72,605,692.72,605l-1.51,6.8-4.48-.54-8.85-3.43-3.43,1.91-1,3.44s-4.73-.41-5.62-1.23-4.71-6.53-4.71-6.53l-7.6-1.51s-17.83,1.09-20.83-.86-5.45-3.27-5.45-3.27l-6.12,1.78s-6.52,1.2-7.08-4.78S618.38,587.73,618.38,587.73Z" fill="#fafafa"/><path d="M618.38,587.73l-.19.26a8.37,8.37,0,0,0-.53.79,11.44,11.44,0,0,0-1.3,3.48,13.09,13.09,0,0,0-.29,2.72,10.55,10.55,0,0,0,.37,3.26,4.43,4.43,0,0,0,2.42,2.78,7.52,7.52,0,0,0,4.29.49h0l6.12-1.78h.1l5.15,3a7.18,7.18,0,0,0,3,.91c1.08.16,2.19.23,3.33.29,4.56.2,9.51,0,14.77-.23h0l7.62,1.49h.08v.07c1.22,1.8,2.48,3.68,3.86,5.52.18.22.35.46.54.67s.18.21.28.31l.33.2a9.45,9.45,0,0,0,1.65.48c1.15.22,2.34.37,3.54.49l-.2.13c.29-1,.62-2.21,1-3.43v-.07l.07,0,3.43-1.91.08,0h.08l8.86,3.44h0l4.48.53-.23.16c.47-2.11,1-4.44,1.51-6.8v-.09l.07-.05a54.22,54.22,0,0,0,7.89-6,31.51,31.51,0,0,0,6.51-7.85,22.88,22.88,0,0,0,1.63-5,39.12,39.12,0,0,0,.69-5.28,62.65,62.65,0,0,0-.22-10.87v-.12l.09-.08a104.54,104.54,0,0,0,9.83-8.36,32.38,32.38,0,0,0,3.43-3.88,11.46,11.46,0,0,0,1.28-2.13,3,3,0,0,0,.29-1.11.64.64,0,0,0-.41-.73l-.45-.11.35-.29a6.29,6.29,0,0,0,2.08-3,8.56,8.56,0,0,0,.18-3.7c-.09-.61-.23-1.22-.33-1.87a2.94,2.94,0,0,1,0-.51.81.81,0,0,1,0-.31.41.41,0,0,1,.33-.28c.17,0,.39-.3.55-.54a12.9,12.9,0,0,0,1.45-3.39,16.56,16.56,0,0,0,.65-3.63,10,10,0,0,0-.07-1.81c-.1-.57-.21-1.24-.61-1.5a3.11,3.11,0,0,0-1.67-.32,15.27,15.27,0,0,0-1.79.17c-1.19.21-2.37.5-3.53.82A120.74,120.74,0,0,0,707.4,538c-4.29,1.79-8.59,3.43-12.66,5.07-16.45,6.56-31.22,12.45-43.44,17.67-3,1.33-6,2.45-8.3,4.42a65.68,65.68,0,0,0-6.34,5.56,27,27,0,0,0-2.51,2.83,16.93,16.93,0,0,1-2.37,2.63c-1.64,1.56-3.21,2.89-4.62,4.09-2.83,2.38-5.06,4.18-6.55,5.42l-1.72,1.43a4.73,4.73,0,0,0-.4.37l-.13.14a14.78,14.78,0,0,1,2.17-2l6.5-5.48c1.39-1.21,3-2.57,4.59-4.1a18.92,18.92,0,0,0,2.32-2.58,27.48,27.48,0,0,1,2.53-2.87,64.79,64.79,0,0,1,6.33-5.6c.6-.45,1.21-.92,1.84-1.35l.48-.33.52-.27c.35-.18.69-.4,1.06-.55,1.43-.67,2.92-1.34,4.45-2,12.22-5.27,27-11.16,43.42-17.77,4.1-1.66,8.36-3.29,12.63-5.07a119.86,119.86,0,0,1,13.39-4.92,35.88,35.88,0,0,1,3.58-.86,14.3,14.3,0,0,1,1.85-.18,3.51,3.51,0,0,1,1.91.4,1.47,1.47,0,0,1,.6.86,7,7,0,0,1,.21.93,10.15,10.15,0,0,1,.07,1.91,16.78,16.78,0,0,1-.66,3.72,13.43,13.43,0,0,1-1.51,3.53,1.63,1.63,0,0,1-.86.71v.17a3.09,3.09,0,0,0,0,.43c.09.61.24,1.25.33,1.88a9,9,0,0,1-.19,3.9,6.69,6.69,0,0,1-2.23,3.23l-.09-.38a1.1,1.1,0,0,1,.77,1.18,3.77,3.77,0,0,1-.32,1.28,13.36,13.36,0,0,1-1.33,2.21,32.17,32.17,0,0,1-3.44,3.93A107,107,0,0,1,709.4,570l.1-.21a63.46,63.46,0,0,1,.22,10.94,41.9,41.9,0,0,1-.71,5.35,23.8,23.8,0,0,1-1.66,5.06,31.9,31.9,0,0,1-6.62,8,54.59,54.59,0,0,1-8,6l.1-.12c-.53,2.35-1,4.68-1.51,6.79V612h-.19l-4.48-.54h0L677.84,608H678l-3.43,1.9.09-.11-1,3.44v.15h-.16a31.16,31.16,0,0,1-3.58-.51,8.42,8.42,0,0,1-1.71-.51,2.26,2.26,0,0,1-.42-.26c-.11-.11-.22-.22-.31-.33l-.55-.69c-1.39-1.86-2.65-3.74-3.87-5.55l.12.07-7.63-1.51h0c-5.27.28-10.23.4-14.81.19-1.14-.07-2.26-.14-3.35-.31a7.48,7.48,0,0,1-3.09-1l-5.1-3.07h.1l-6.14,1.76h0a7.92,7.92,0,0,1-4.38-.53,4.65,4.65,0,0,1-2.5-2.9A10.92,10.92,0,0,1,616,595a14.85,14.85,0,0,1,.32-2.74,11.29,11.29,0,0,1,1.37-3.49A4.8,4.8,0,0,1,618.38,587.73Z" fill="#2f2e41"/><path d="M616.07,596.85a10.43,10.43,0,0,0-.86,8.16c.13.34.39.72.75.66s.42-.3.54-.54c.66-1.3,1.48-3,2.14-4.29Z" fill="#01B763FF"/><path d="M616.07,596.85a10.43,10.43,0,0,0-.86,8.16c.13.34.39.72.75.66s.42-.3.54-.54c.66-1.3,1.48-3,2.14-4.29Z" fill="#fff" opacity="0.5"/><path d="M619,595.11a1.08,1.08,0,0,1-2.16,0,1.07,1.07,0,0,1,1.07-1.09h0A1.07,1.07,0,0,1,619,595.1Z" fill="#2f2e41"/><path d="M617.49,603.23a4,4,0,0,0,.46,2,1.33,1.33,0,0,0,1.81.45h0a3.15,3.15,0,0,0,.54-.77.89.89,0,0,1,.73-.52c.34,0,.58.31.86.48a1.41,1.41,0,0,0,1.61-.19,1.8,1.8,0,0,0,.55-1.57,4.75,4.75,0,0,1-.21-1.51c.09-.44.45-.79.51-1.25a1.51,1.51,0,0,0-1.11-1.46,3.74,3.74,0,0,0-3.72,1,10.91,10.91,0,0,0-2.13,3.43" fill="#01B763FF"/><path d="M616,598.93a2,2,0,0,1,0,1.06,2.32,2.32,0,0,1-.39,1,5.2,5.2,0,0,1,.22-1A5.88,5.88,0,0,1,616,598.93Z" fill="#2f2e41"/><path d="M665,576.7a45.54,45.54,0,0,0,15,6.57c3.23.78,6.67,1.18,9.82.17s5.95-3.72,6.2-7a11,11,0,0,0,5.28.16c1.71-.52,3.21-2.2,2.87-4-.11-.6-.43-1.22-.19-1.77s.86-.76,1.38-1a10,10,0,0,0,5.79-6.36c.15-.49.22-1.12-.19-1.45a1.44,1.44,0,0,0-1.31,0c-4.84,1.49-10.12,4-15.2,3.16l2.37,2.32c-4.56,1.86-9.39,1.87-14.28,1.33a10.78,10.78,0,0,1,2.58,2.64,3.92,3.92,0,0,1,.08,3.66,4.43,4.43,0,0,1-3,1.9,27.29,27.29,0,0,1-16.15-.55" fill="#e0e0e0"/><path d="M710.55,560.18s-.3.33-.91.9a16.72,16.72,0,0,1-2.9,2.12,17.79,17.79,0,0,1-12.3,2.13l.07-.14,2.36,2.32.1.08-.12.06a22.05,22.05,0,0,1-12.08,1.59,23.9,23.9,0,0,1-2.67-.57l.07-.17a14.92,14.92,0,0,1,2.38,2.11,4.92,4.92,0,0,1,1.25,2.79,3.1,3.1,0,0,1-1,2.72,6.15,6.15,0,0,1-2.58,1.12,31.28,31.28,0,0,1-9.65.67,30.58,30.58,0,0,1-6.35-1.22,22.57,22.57,0,0,1-2.23-.79l.58.19c.38.14.94.32,1.66.54a31.87,31.87,0,0,0,16,.46,6.19,6.19,0,0,0,2.52-1.1,2.9,2.9,0,0,0,1-2.58,4.75,4.75,0,0,0-1.21-2.69,15,15,0,0,0-2.35-2.08l-.37-.28.44.13a24,24,0,0,0,2.65.56,21.88,21.88,0,0,0,12-1.56v.13l-2.37-2.33-.18-.18.26.06a17.33,17.33,0,0,0,7.1-.09,18,18,0,0,0,5.15-2,19.28,19.28,0,0,0,2.92-2.07c.31-.28.53-.51.69-.65S710.55,560.18,710.55,560.18Z" fill="#2f2e41"/><path d="M651.08,597l-.39.12c-.25.06-.63.14-1.09.22a15.62,15.62,0,0,1-7.31-.6,10.12,10.12,0,0,1-1-.4,1.24,1.24,0,0,1-.36-.19s.54.2,1.45.47a17.71,17.71,0,0,0,7.24.6C650.51,597.08,651.07,596.91,651.08,597Z" fill="#2f2e41"/><path d="M654.59,595.61a1.21,1.21,0,0,1-.42.13c-.27.07-.67.16-1.16.24a17.56,17.56,0,0,1-3.9.16,17.33,17.33,0,0,1-3.84-.71c-.48-.16-.86-.29-1.12-.4a1.56,1.56,0,0,1-.39-.19,3.31,3.31,0,0,1,.42.12c.26.1.64.21,1.12.35a19.58,19.58,0,0,0,7.73.55c.49-.07.86-.13,1.16-.19A2.57,2.57,0,0,1,654.59,595.61Z" fill="#2f2e41"/><path d="M665.1,594.08a4.83,4.83,0,0,1-1.07.08,22,22,0,0,1-2.57-.15,21.77,21.77,0,0,1-2.54-.45,4.7,4.7,0,0,1-1-.31,7.32,7.32,0,0,1,1,.19c.64.12,1.54.28,2.52.4s1.9.16,2.58.19A9.23,9.23,0,0,1,665.1,594.08Z" fill="#2f2e41"/><path d="M669.76,592.9a.92.92,0,0,1-.28.08,7,7,0,0,1-.78.11,11.48,11.48,0,0,1-2.62,0,11.71,11.71,0,0,1-2.53-.63c-.25-.09-.49-.2-.73-.31a1.35,1.35,0,0,1-.26-.15c.35.1.69.21,1,.34a15.69,15.69,0,0,0,2.53.57,14.7,14.7,0,0,0,2.57.1A9.72,9.72,0,0,1,669.76,592.9Z" fill="#2f2e41"/></g><path d="M826.27,579.51a3.92,3.92,0,0,0-1-2.18c-.52-.55-1.21-.89-1.74-1.41a3.49,3.49,0,0,1-1-1.84,2.5,2.5,0,0,0-.26-1.05c-.21-.3-.7-.45-.93-.16a1.17,1.17,0,0,0-.13.58.49.49,0,0,1-.3.48l-1-2a1.63,1.63,0,0,0-.57-.77c-.27-.17-.72-.1-.81.21a1.23,1.23,0,0,0,.07.63c0,.21,0,.48-.25.52s-.38-.29-.44-.54a3,3,0,0,0-1.27-1.7.64.64,0,0,0-.55-.1c-.25.12-.23.49-.14.76s.22.57.05.81a.58.58,0,0,1-.54.21c-.2,0-.41-.09-.61-.15a1.87,1.87,0,0,0-1.62,3.24,4.88,4.88,0,0,0,2.43.72,10.06,10.06,0,0,1,4.72,2.22,15.39,15.39,0,0,1,3.36,4l2.37-.06A7.87,7.87,0,0,0,826.27,579.51Z" fill="#01B763FF"/><g opacity="0.3"><path d="M813.75,575.46a1.46,1.46,0,0,1,2.14-1.15,5.5,5.5,0,0,0,.57.36.53.53,0,0,0,.62-.08c.14-.17.1-.42.2-.61a.62.62,0,0,1,.77-.25,1.31,1.31,0,0,1,.63.62c.14.26.25.53.42.81.71,1,2.23,1.07,3.13,1.92s.95,2.44,1.88,3.31c.17.15.38.34.32.57s-.39.31-.64.25a2.43,2.43,0,0,1-1.35-.91,16.46,16.46,0,0,1-.93-1.37,8.19,8.19,0,0,0-7.86-3.34"/></g><path d="M725.9,593.5s3.58.09,9.72,4,10.81,5.59,13,5.23,10.3-6.26,15.17-4.64c4,1.32,10.4,3,12.48,3.57a4.32,4.32,0,0,0,1.39.11l14-1.35a4,4,0,0,0,3.19-2.23c1.9-4,6.26-12.79,9.15-15.82,3.8-4,7.94-7.21,11.91-6.85s7.94,4.69,7.76,7.76c-.11,1.69-1.68,3.29-3.07,4.4a4,4,0,0,0-1.29,4.25c1.86,6.07,5.91,20.45,4.36,25.79-2,6.86-9.72,17.52-12.58,19.15s-13.23,5-17.56,5.94-8.17,2.21-13.56,2.21c-4.4,0-20-2.35-24.18-6-4.41-3.87-5-7.13-5.73-7.77l-.26-.21c-1-.77-10-7.34-12.62-11.13a4.05,4.05,0,0,0-2-1.59c-2.15-.76-6-2.43-5.8-4.61v0a4.06,4.06,0,0,0-1.17-2.81,7.45,7.45,0,0,1-2.07-3.58,4,4,0,0,1,0-1.51,3.65,3.65,0,0,0-.66-3c-1.42-1.79-3.16-4.49-2.65-6.49C723.53,593.2,725.9,593.5,725.9,593.5Z" fill="#fafafa"/><path d="M725.9,593.5a2.71,2.71,0,0,0-1.52.4,3.33,3.33,0,0,0-1.25,1.45,3.87,3.87,0,0,0-.34,2.59,9.78,9.78,0,0,0,1.39,3.07c.34.53.72,1,1.14,1.62a3.61,3.61,0,0,1,.87,2,4.43,4.43,0,0,1,0,1.15,3.36,3.36,0,0,0-.05,1.14,5.48,5.48,0,0,0,.81,2.28,11,11,0,0,0,1.62,2,4.13,4.13,0,0,1,.94,2.63h0a2.2,2.2,0,0,0,.27,1.13,4.51,4.51,0,0,0,.81.93,10.2,10.2,0,0,0,2.18,1.39,21.14,21.14,0,0,0,2.52,1,4.58,4.58,0,0,1,2.14,1.82,31.75,31.75,0,0,0,4.17,4.27c1.54,1.36,3.2,2.71,4.93,4.05.87.67,1.76,1.35,2.67,2l.68.5a1.9,1.9,0,0,1,.61.68c.29.52.52,1,.81,1.55a19.22,19.22,0,0,0,4.38,5.52,10.85,10.85,0,0,0,3.12,1.86,31.44,31.44,0,0,0,3.51,1.3,73.3,73.3,0,0,0,7.59,1.78c2.61.47,5.3.86,8,1.1a31.39,31.39,0,0,0,8.32-.51c2.77-.53,5.59-1.28,8.45-1.9a81.15,81.15,0,0,0,8.52-2.57c1.43-.47,2.85-1,4.27-1.54.7-.27,1.41-.56,2.11-.86a9.9,9.9,0,0,0,2-1.09,38.15,38.15,0,0,0,5.94-7.11,58.37,58.37,0,0,0,4.7-8.24c.33-.72.62-1.48.89-2.22.12-.38.26-.76.36-1.14s.17-.77.22-1.16a22.19,22.19,0,0,0-.1-4.82,99.27,99.27,0,0,0-3.1-14.78c-.33-1.2-.67-2.39-1-3.57-.16-.6-.38-1.16-.5-1.81a4.45,4.45,0,0,1,.13-1.92,4.1,4.1,0,0,1,1-1.62c.48-.46,1-.81,1.38-1.21a6.32,6.32,0,0,0,1.9-2.89,4.86,4.86,0,0,0-.73-3.3,10,10,0,0,0-2.25-2.65,9.73,9.73,0,0,0-3-1.73,6.58,6.58,0,0,0-3.35-.25,14.1,14.1,0,0,0-6,3,33.58,33.58,0,0,0-2.52,2.22,24.72,24.72,0,0,0-2.26,2.43,47.29,47.29,0,0,0-3.53,5.51c-1,1.87-2,3.75-3,5.67-.46.94-.92,1.88-1.38,2.8a11.41,11.41,0,0,1-.72,1.39,4.11,4.11,0,0,1-2.61,1.7c-.54.1-1,.12-1.52.17l-3,.29-5.78.55-2.82.27-1.39.13a4,4,0,0,1-1.42-.14c-3.54-.94-6.92-1.87-10.13-2.85l-2.38-.74a6.59,6.59,0,0,0-2.34-.22,15.91,15.91,0,0,0-4.45,1.13c-1.41.56-2.73,1.19-4,1.83a38.52,38.52,0,0,1-3.73,1.79,4.36,4.36,0,0,1-2,.11,13.13,13.13,0,0,1-1.86-.41,25.71,25.71,0,0,1-3.35-1.29,48.36,48.36,0,0,1-5.46-3.12,34,34,0,0,0-7.63-4,16,16,0,0,0-2.16-.59,6.46,6.46,0,0,0-.75-.11,3.91,3.91,0,0,1,.76.07,14.8,14.8,0,0,1,2.18.55,32.89,32.89,0,0,1,7.68,3.91,49.91,49.91,0,0,0,5.47,3,26,26,0,0,0,3.32,1.25,14.24,14.24,0,0,0,1.83.41,4.32,4.32,0,0,0,1.89-.12c1.22-.47,2.43-1.16,3.7-1.79a43.56,43.56,0,0,1,4-1.85,16.09,16.09,0,0,1,4.53-1.17,6.64,6.64,0,0,1,2.43.23l2.36.73c3.25,1,6.6,1.89,10.14,2.82a7.21,7.21,0,0,0,2.7,0l2.81-.28,5.78-.56,3-.29c.49-.06,1-.08,1.48-.16a3.82,3.82,0,0,0,1.34-.54,3.74,3.74,0,0,0,1-1,10.16,10.16,0,0,0,.7-1.35l1.38-2.8c.95-1.88,1.93-3.78,3-5.67a46.76,46.76,0,0,1,3.55-5.56,25,25,0,0,1,2.29-2.43,30.16,30.16,0,0,1,2.55-2.25,14.33,14.33,0,0,1,6.17-3.14,6.92,6.92,0,0,1,3.55.27,10.15,10.15,0,0,1,3.1,1.8,10.35,10.35,0,0,1,2.34,2.76,5.17,5.17,0,0,1,.81,3.59,6.71,6.71,0,0,1-2,3.1c-.43.43-1,.81-1.37,1.2a3.55,3.55,0,0,0-.88,1.48,3.76,3.76,0,0,0-.13,1.73c.11.56.32,1.16.49,1.75.35,1.19.7,2.38,1,3.58A99,99,0,0,1,824,611.55a22.39,22.39,0,0,1,.09,4.91,7.45,7.45,0,0,1-.22,1.22,8.93,8.93,0,0,1-.37,1.17c-.27.76-.57,1.52-.91,2.25a56.39,56.39,0,0,1-4.74,8.31,38,38,0,0,1-6,7.2,10.3,10.3,0,0,1-2.05,1.14c-.71.31-1.42.59-2.13.88-1.43.55-2.86,1-4.29,1.54-2.86,1-5.67,1.85-8.56,2.56s-5.67,1.36-8.47,1.9a31.69,31.69,0,0,1-8.42.5c-2.75-.24-5.44-.64-8.1-1.12a73.29,73.29,0,0,1-7.62-1.79,37.38,37.38,0,0,1-3.59-1.29,11.55,11.55,0,0,1-3.24-1.93,19.42,19.42,0,0,1-4.44-5.67c-.28-.51-.51-1.05-.81-1.53a1.56,1.56,0,0,0-.52-.59l-.68-.51c-.92-.68-1.8-1.35-2.67-2-1.73-1.36-3.39-2.72-4.93-4.1a31.18,31.18,0,0,1-4.2-4.32,4.29,4.29,0,0,0-2.08-1.75,22.43,22.43,0,0,1-2.49-1,10.45,10.45,0,0,1-2.23-1.43,4.86,4.86,0,0,1-.81-1,2.4,2.4,0,0,1-.3-1.26h0a3.83,3.83,0,0,0-.88-2.49,11.28,11.28,0,0,1-1.62-2.08,5.59,5.59,0,0,1-.81-2.34,3.46,3.46,0,0,1,.06-1.2,5.06,5.06,0,0,0,0-1.1,3.39,3.39,0,0,0-.81-1.89,18.16,18.16,0,0,1-1.14-1.62,9.7,9.7,0,0,1-1.38-3.12,3.59,3.59,0,0,1,0-1.46,6.23,6.23,0,0,1,.39-1.2,3.45,3.45,0,0,1,1.31-1.47,2.86,2.86,0,0,1,1.14-.35A1.42,1.42,0,0,1,725.9,593.5Z" fill="#2f2e41"/><path d="M744.19,607.5H744l-.51-.08a18.79,18.79,0,0,1-1.83-.45,20.85,20.85,0,0,1-5.62-2.66,4.26,4.26,0,0,1-2-2.74,2.69,2.69,0,0,1,1-2.53,2.73,2.73,0,0,1,1.82-.48,2,2,0,0,1,.67.19,3.93,3.93,0,0,0-.67-.12,2.67,2.67,0,0,0-1.75.51,2.55,2.55,0,0,0-1,2.43,4.2,4.2,0,0,0,1.94,2.62,21.81,21.81,0,0,0,5.56,2.69c.76.24,1.38.39,1.82.5l.49.11Z" fill="#2f2e41"/><path d="M817.47,579.13a1.15,1.15,0,0,0-1.16.72,1.18,1.18,0,0,0,.33,1.34,1.16,1.16,0,0,0,1.81-1.28,1.22,1.22,0,0,0-1.14-.81" fill="#2f2e41"/><path d="M822.63,584.93a11.6,11.6,0,0,1,5.19,1,3.6,3.6,0,0,0-.3-2.67c-.44-.81-2.86-2.69-4.86-2.43" fill="#01B763FF"/><path d="M822.63,584.93a11.6,11.6,0,0,1,5.19,1,3.6,3.6,0,0,0-.3-2.67c-.44-.81-2.86-2.69-4.86-2.43" fill="#fff" opacity="0.2"/><path d="M825.84,582.75a1.51,1.51,0,0,1-1.05-.25,1.49,1.49,0,0,1-.77-.81,9.89,9.89,0,0,0,.81.64A3.48,3.48,0,0,0,825.84,582.75Z" fill="#2f2e41"/><path d="M822.77,584.93a10.86,10.86,0,0,0-4.35,1.29,3.1,3.1,0,0,0-1.42,1.26,2.54,2.54,0,0,0,0,1.95,7.14,7.14,0,0,0,1,1.72,4,4,0,0,0,.81.93,1.51,1.51,0,0,0,1.17.35c.81-.14,1.31-1.08,2.1-1.06.63,0,1.13.61,1.75.68a1.37,1.37,0,0,0,1.21-.62,2.83,2.83,0,0,0,.46-1.32,7.57,7.57,0,0,0-1.11-5.08A8.27,8.27,0,0,0,822.77,584.93Z" fill="#01B763FF"/><path d="M741.15,615l-.14-.08-.38-.28c-.32-.23-.81-.59-1.35-1a50.1,50.1,0,0,1-4.2-3.78,6.4,6.4,0,0,1-1.7-2.58,2.9,2.9,0,0,1,.29-2.5,2.23,2.23,0,0,1,1.4-.94,1.34,1.34,0,0,1,.63.05,3.21,3.21,0,0,0-.62,0,2.15,2.15,0,0,0-1.34.92,2.8,2.8,0,0,0-.24,2.38,6.47,6.47,0,0,0,1.7,2.52c1.55,1.55,3,2.87,4.15,3.8l1.32,1.12.36.3Z" fill="#2f2e41"/><path d="M740.67,621.7a3.46,3.46,0,0,1-.44-.34,14,14,0,0,1-1.12-1,20.08,20.08,0,0,1-3.06-4,16.35,16.35,0,0,1-1.23-2.48,2.24,2.24,0,0,1,.21-2.21,1.24,1.24,0,0,1,1.44-.37.93.93,0,0,1,.33.26.37.37,0,0,1,.07.12,1.1,1.1,0,0,0-1.56-.13.81.81,0,0,0-.18.19,2.14,2.14,0,0,0-.17,2.08,18.46,18.46,0,0,0,1.23,2.43,22,22,0,0,0,3,4c.44.47.81.81,1.08,1.07A3.87,3.87,0,0,1,740.67,621.7Z" fill="#2f2e41"/><path d="M814.82,596.09a9.1,9.1,0,0,0,.41-2.14,9.86,9.86,0,0,0-.24-2.16,2.16,2.16,0,0,1,.24.61,5.45,5.45,0,0,1,.17,1.56,5.13,5.13,0,0,1-.3,1.55A1.83,1.83,0,0,1,814.82,596.09Z" fill="#2f2e41"/><path d="M813.4,597.78c.18-.6.34-1.22.46-1.84s.07-1.27.06-1.91A4.35,4.35,0,0,1,814,596,4.2,4.2,0,0,1,813.4,597.78Z" fill="#2f2e41"/><path d="M799.71,635.86a2.92,2.92,0,0,1-.33.72,7,7,0,0,1-1.18,1.52,7.63,7.63,0,0,1-1.54,1.17,2.59,2.59,0,0,1-.72.32,10.12,10.12,0,0,0,3.77-3.73Z" fill="#2f2e41"/><path d="M801.28,635.7a1.76,1.76,0,0,1-.29.58,9.47,9.47,0,0,1-.91,1.27,11.12,11.12,0,0,1-1.07,1.1,2.49,2.49,0,0,1-.52.4s.69-.71,1.46-1.62S801.24,635.68,801.28,635.7Z" fill="#2f2e41"/><path d="M754.55,621.41a24,24,0,0,0,19.49,9l-2.43,2.66a18.69,18.69,0,0,0,11.69,1.53,49.77,49.77,0,0,0,11.4-3.68,43.57,43.57,0,0,0,8.72-4.55,16.2,16.2,0,0,0,6-7.61,25.92,25.92,0,0,1-18,8.53,51.6,51.6,0,0,1-9.12-.69,5.07,5.07,0,0,1-2.83-1,1.76,1.76,0,0,1-.08-2.63,32.24,32.24,0,0,1-24.59-1.45" fill="#e0e0e0"/><path d="M793.75,603s1.26.16,3.51.67a46.27,46.27,0,0,1,9.24,3,11.83,11.83,0,0,1,2.75,1.71,6.68,6.68,0,0,1,2,2.88,6,6,0,0,1,.08,3.73,14.65,14.65,0,0,1-1.88,3.51,19.11,19.11,0,0,1-6.48,5.51,25.8,25.8,0,0,1-8.73,2.71,48.61,48.61,0,0,1-9.34.25c-.75,0-1.5-.09-2.24-.15a8.47,8.47,0,0,1-2.18-.34,2.45,2.45,0,0,1-1.62-1.39,1.63,1.63,0,0,1,.5-2l.06.14a32.9,32.9,0,0,1-19.52-.13,32,32,0,0,1-5.21-2.17c-1.15-.63-1.74-1-1.74-1l.46.25c.3.16.73.43,1.31.72a33,33,0,0,0,24.65,2.19L780,623l-.54.32a1.44,1.44,0,0,0-.43,1.78,2.25,2.25,0,0,0,1.52,1.3,8.68,8.68,0,0,0,2.15.33c.73.06,1.47.11,2.23.15a48.3,48.3,0,0,0,9.31-.26,25.72,25.72,0,0,0,8.67-2.68,19.07,19.07,0,0,0,6.41-5.46,14.36,14.36,0,0,0,1.87-3.47,5.92,5.92,0,0,0-.06-3.63,6.67,6.67,0,0,0-1.93-2.83,11.19,11.19,0,0,0-2.71-1.69,47.59,47.59,0,0,0-9.22-3.09c-1.11-.26-2-.44-2.58-.55Z" fill="#2f2e41"/><path d="M771.07,616.78h-.2l-.56,0-2.08.13-6.86.39-3.77.19a22.28,22.28,0,0,0-3.06.24A2.2,2.2,0,0,0,753,619a1.89,1.89,0,0,0-.12.74.67.67,0,0,1,0-.2,1.21,1.21,0,0,1,.1-.56,2.16,2.16,0,0,1,1.62-1.29,21,21,0,0,1,3.07-.29l3.78-.2,6.86-.33,2.08-.09h.81Z" fill="#2f2e41"/><path d="M819.94,590.8a1.36,1.36,0,0,0,.45-.74c.14-.52-.1-1.3,0-2.17a5.19,5.19,0,0,1,.7-2.08,4,4,0,0,1,.38-.54c.11-.12.17-.18.18-.17s-.19.28-.45.81a5.41,5.41,0,0,0-.64,2,19.86,19.86,0,0,1-.08,2.18C820.34,590.67,819.93,590.85,819.94,590.8Z" fill="#2f2e41"/><path d="M824,588.87a2.25,2.25,0,0,1-.47-.4,4.21,4.21,0,0,1-.81-1.28,4.64,4.64,0,0,1-.3-1.48,1.59,1.59,0,0,1,.06-.61,7.32,7.32,0,0,0,.4,2A6.69,6.69,0,0,0,824,588.87Z" fill="#2f2e41"/><g opacity="0.3"><path d="M821.69,585.08a3.75,3.75,0,0,0-1.16,2.67,21.34,21.34,0,0,1-.22,3,1.85,1.85,0,0,0,1.24-1.72,4.16,4.16,0,0,1,0-1.22c.08-.33.34-.59.39-.92s-.26-1-.12-1.43a.76.76,0,0,0,.06-.2.18.18,0,0,0-.09-.18c-.07,0-.15.05-.12.11"/></g><path d="M793.14,614.12l-.37.22a8.66,8.66,0,0,1-1.08.48,12.13,12.13,0,0,1-3.81.81,12.33,12.33,0,0,1-3.87-.41,9.23,9.23,0,0,1-1.12-.38,3.52,3.52,0,0,1-.4-.18s.59.2,1.55.44a13.39,13.39,0,0,0,3.83.36,13.57,13.57,0,0,0,3.78-.75C792.58,614.34,793.12,614.09,793.14,614.12Z" fill="#2f2e41"/><path d="M799.58,615.91a3.6,3.6,0,0,1-.4.28,7.93,7.93,0,0,1-1.18.64,11.14,11.14,0,0,1-4.28,1,11,11,0,0,1-2.43-.2,5.44,5.44,0,0,1-1.89-.65,1.89,1.89,0,0,1-.81-1,.82.82,0,0,1,0-.49,2.44,2.44,0,0,0,.09.47,1.93,1.93,0,0,0,.81,1,5.82,5.82,0,0,0,1.85.6,12.38,12.38,0,0,0,2.43.18,12,12,0,0,0,4.25-.94c.52-.23.91-.44,1.19-.59A2.85,2.85,0,0,1,799.58,615.91Z" fill="#2f2e41"/><path d="M803.45,616.72a1.33,1.33,0,0,1-.26.27,7.19,7.19,0,0,1-.81.67,10.27,10.27,0,0,1-3.14,1.48,9.83,9.83,0,0,1-3.46.33,7.24,7.24,0,0,1-1-.15l-.38-.1s.55.08,1.43.13a10.8,10.8,0,0,0,3.4-.37,11.15,11.15,0,0,0,3.12-1.42C803.06,617.07,803.43,616.69,803.45,616.72Z" fill="#2f2e41"/></svg>