<svg width="250" height="244" viewBox="0 0 250 244" fill="none" xmlns="http://www.w3.org/2000/svg">
<g clip-path="url(#clip0_203_1226)">
<path d="M158.71 54.8748H91.3459C89.8108 54.8767 88.3391 55.4873 87.2537 56.5726C86.1682 57.658 85.5575 59.1295 85.5557 60.6644V210.363L84.7836 210.598L68.2581 215.658C67.4749 215.897 66.629 215.815 65.906 215.431C65.183 215.047 64.6421 214.391 64.4019 213.609L15.2461 53.0646C15.0069 52.2815 15.0884 51.4355 15.4728 50.7125C15.8571 49.9895 16.5129 49.4486 17.2959 49.2088L42.7616 41.4122L116.588 18.8175L142.053 11.0209C142.441 10.9017 142.848 10.86 143.252 10.8983C143.656 10.9366 144.048 11.0541 144.406 11.2441C144.764 11.4341 145.081 11.6929 145.339 12.0056C145.597 12.3183 145.791 12.6789 145.91 13.0666L158.475 54.1029L158.71 54.8748Z" fill="#F2F2F2"/>
<path d="M173.41 54.1023L158.266 4.64412C158.014 3.82005 157.602 3.0537 157.054 2.38886C156.506 1.72402 155.832 1.17371 155.071 0.769395C154.31 0.365075 153.476 0.114659 152.618 0.0324677C151.761 -0.0497241 150.895 0.0379183 150.071 0.290378L114.268 11.2481L40.4454 33.8466L4.64215 44.8081C2.97892 45.3188 1.58627 46.4684 0.769893 48.0047C-0.0464832 49.541 -0.219893 51.3383 0.287735 53.0023L52.0452 222.03C52.4576 223.373 53.2897 224.549 54.4193 225.385C55.549 226.22 56.9168 226.672 58.322 226.673C58.9724 226.674 59.6191 226.576 60.2404 226.384L84.7835 218.873L85.5556 218.634V217.827L84.7835 218.062L60.0127 225.647C58.5446 226.094 56.9589 225.941 55.6035 225.221C54.2481 224.501 53.2336 223.273 52.7826 221.806L1.02905 52.7746C0.805579 52.0478 0.727694 51.284 0.799851 50.527C0.872008 49.7701 1.09278 49.0348 1.44955 48.3633C1.80632 47.6918 2.29207 47.0972 2.87897 46.6137C3.46587 46.1301 4.1424 45.7671 4.86983 45.5453L40.6731 34.5838L114.495 11.9891L150.299 1.02759C150.851 0.859227 151.424 0.773383 152.001 0.772846C153.239 0.775625 154.444 1.1747 155.438 1.91162C156.433 2.64854 157.166 3.68458 157.529 4.86799L172.603 54.1023L172.842 54.8742H173.645L173.41 54.1023Z" fill="#3F3D56"/>
<path d="M47.3567 49.335C46.6127 49.3345 45.8884 49.0955 45.2902 48.6533C44.6919 48.211 44.2512 47.5887 44.0326 46.8776L39.0605 30.6392C38.9269 30.203 38.8805 29.7448 38.9241 29.2907C38.9676 28.8366 39.1002 28.3955 39.3142 27.9926C39.5283 27.5897 39.8196 27.233 40.1715 26.9427C40.5235 26.6524 40.9292 26.4343 41.3655 26.3008L109.281 5.51102C110.162 5.2422 111.114 5.33388 111.928 5.76594C112.741 6.19799 113.35 6.93511 113.62 7.81553L118.593 24.0542C118.861 24.9351 118.769 25.8866 118.337 26.7C117.905 27.5133 117.168 28.1221 116.288 28.3927L48.3717 49.1825C48.0428 49.2834 47.7007 49.3348 47.3567 49.335Z" fill="#01B763"/>
<path d="M73.403 17.3511C77.6669 17.3511 81.1234 13.8951 81.1234 9.63175C81.1234 5.36844 77.6669 1.91235 73.403 1.91235C69.1392 1.91235 65.6826 5.36844 65.6826 9.63175C65.6826 13.8951 69.1392 17.3511 73.403 17.3511Z" fill="#01B763"/>
<path d="M73.4025 14.5199C76.1025 14.5199 78.2912 12.3313 78.2912 9.63169C78.2912 6.93204 76.1025 4.74353 73.4025 4.74353C70.7025 4.74353 68.5137 6.93204 68.5137 9.63169C68.5137 12.3313 70.7025 14.5199 73.4025 14.5199Z" fill="white"/>
<path d="M232.63 224.702H102.155C101.285 224.701 100.451 224.355 99.8361 223.74C99.221 223.124 98.875 222.291 98.874 221.421V65.103C98.875 64.2332 99.221 63.3993 99.8361 62.7842C100.451 62.1692 101.285 61.8232 102.155 61.8223H232.63C233.5 61.8233 234.334 62.1692 234.949 62.7843C235.564 63.3993 235.91 64.2332 235.911 65.103V221.421C235.91 222.291 235.564 223.124 234.949 223.739C234.334 224.355 233.5 224.701 232.63 224.702Z" fill="#E6E6E6"/>
<path d="M172.604 54.1029H91.3465C89.6068 54.1054 87.9391 54.7975 86.709 56.0274C85.4788 57.2574 84.7866 58.9249 84.7842 60.6644V218.063L85.5562 217.827V60.6644C85.5581 59.1295 86.1687 57.658 87.2542 56.5726C88.3397 55.4873 89.8114 54.8767 91.3465 54.8748H172.843L172.604 54.1029ZM243.438 54.1029H91.3465C89.6068 54.1054 87.9391 54.7975 86.709 56.0274C85.4788 57.2574 84.7866 58.9249 84.7842 60.6644V237.439C84.7866 239.178 85.4788 240.846 86.709 242.076C87.9391 243.305 89.6068 243.998 91.3465 244H243.438C245.178 243.998 246.845 243.305 248.076 242.076C249.306 240.846 249.998 239.178 250 237.439V60.6644C249.998 58.9249 249.306 57.2574 248.076 56.0274C246.845 54.7975 245.178 54.1054 243.438 54.1029ZM249.228 237.439C249.226 238.973 248.616 240.445 247.53 241.53C246.445 242.616 244.973 243.226 243.438 243.228H91.3465C89.8114 243.226 88.3397 242.616 87.2542 241.53C86.1687 240.445 85.5581 238.973 85.5562 237.439V60.6644C85.5581 59.1295 86.1687 57.658 87.2542 56.5726C88.3397 55.4873 89.8114 54.8767 91.3465 54.8748H243.438C244.973 54.8767 246.445 55.4873 247.53 56.5726C248.616 57.658 249.226 59.1295 249.228 60.6644V237.439Z" fill="#3F3D56"/>
<path d="M202.906 71.0855H131.878C130.957 71.0845 130.074 70.7182 129.423 70.0669C128.772 69.4157 128.405 68.5328 128.404 67.6118V50.6291C128.405 49.7082 128.772 48.8252 129.423 48.174C130.074 47.5227 130.957 47.1564 131.878 47.1554H202.906C203.827 47.1564 204.71 47.5227 205.361 48.174C206.013 48.8252 206.379 49.7082 206.38 50.6291V67.6118C206.379 68.5328 206.013 69.4157 205.361 70.0669C204.71 70.7182 203.827 71.0845 202.906 71.0855Z" fill="#01B763"/>
<path d="M167.392 48.3133C171.656 48.3133 175.113 44.8572 175.113 40.5939C175.113 36.3306 171.656 32.8745 167.392 32.8745C163.128 32.8745 159.672 36.3306 159.672 40.5939C159.672 44.8572 163.128 48.3133 167.392 48.3133Z" fill="#01B763"/>
<path d="M167.392 45.2958C169.989 45.2958 172.094 43.1907 172.094 40.5939C172.094 37.9972 169.989 35.8921 167.392 35.8921C164.795 35.8921 162.689 37.9972 162.689 40.5939C162.689 43.1907 164.795 45.2958 167.392 45.2958Z" fill="white"/>
</g>
<defs>
<clipPath id="clip0_203_1226">
<rect width="250" height="244" fill="white"/>
</clipPath>
</defs>
</svg>
